{"title":"World Trade Center(2006)MPEG_4[DaScubaDude]","uid":15268876,"size":1398940347,"categoryP":"video","categoryS":"movies","magnet":"?xt=urn:btih:7ffc55aef6c902a012234768bea9949cdaca520f&amp;dn=World+Trade+Center%282006%29MPEG_4%5BDaScubaDude%5D&amp;tr=udp%3A%2F%2Ftracker.leechers-paradise.org%3A6969&amp;tr=udp%3A%2F%2Fzer0day.ch%3A1337&amp;tr=udp%3A%2F%2Fopen.demonii.com%3A1337&amp;tr=udp%3A%2F%2Ftracker.coppersurfer.tk%3A6969&amp;tr=udp%3A%2F%2Fexodus.desync.com%3A6969","seeders":1,"leechers":0,"uploader":"dascuba","files":1,"time":1468244223,"description":"World Trade Center (2006)\r\nPG-13 | 2h 9min | Drama, History, Thriller | 9 August 2006 (USA)\r\nTwo Port Authority police officers become trapped under the rubble of the World Trade Center.\r\nDirector: Oliver Stone\r\nWriters: Andrea Berloff, John McLoughlin (true story) |\r\nStars: Nicolas Cage, Michael Peña, Maria Bello \r\n\r\nGeneral\r\nComplete name                            : WorldTradeCenterWORLD_TRADE_CENTER_WS_DISC1_Title1.mp4\r\nFormat                                   : MPEG-4\r\nFormat profile                           : Base Media\r\nCodec ID                                 : isom (isom/iso2/avc1/mp41)\r\nFile size                                : 1.30 GiB\r\nDuration                                 : 2h 9mn\r\nOverall bit rate                         : 1 445 Kbps\r\nMovie name                               : WORLD_TRADE_CENTER_WS_DISC1\r\nGenre                                    : Drama\r\nWriting application                      : Lavf54.6.100\r\n\r\nVideo\r\nID                                       : 1\r\nFormat                                   : AVC\r\nFormat/Info                              : Advanced Video Codec\r\nFormat profile                           :   \r\nFormat settings, CABAC                   : No\r\nFormat settings, ReFrames                : 6 frames\r\nCodec ID                                 : avc1\r\nCodec ID/Info                            : Advanced Video Coding\r\nDuration                                 : 2h 9mn\r\nBit rate                                 : 1 199 Kbps\r\nWidth                                    : 720 pixels\r\nHeight                                   : 404 pixels\r\nDisplay aspect ratio                     : 16:9\r\nFrame rate mode                          : Constant\r\nFrame rate                               : 29.970 (30000/1001) fps\r\nColor space                              : YUV\r\nChroma subsampling                       : 4:2:0\r\nBit depth                                : 8 bits\r\nScan type                                : Progressive\r\nBits/(Pixel*Frame)                       : 0.138\r\nStream size                              : 1.08 GiB (83%)\r\n\r\nAudio\r\nID                                       : 2\r\nFormat                                   : AAC\r\nFormat/Info                              : Advanced Audio Codec\r\nFormat profile                           : LC\r\nCodec ID                                 : 40\r\nDuration                                 : 2h 9mn\r\nBit rate mode                            : Constant\r\nBit rate                                 : 239 Kbps\r\nChannel(s)                               : 2 channels\r\nChannel(s)_Original                      : 6 channels\r\nChannel positions                        : Front: L C R, Side: L R, LFE\r\nSampling rate                            : 44.1 KHz\r\nFrame rate                               : 43.066 fps (1024 spf)\r\nCompression mode                         : Lossy\r\nStream size                              : 221 MiB (17%)\r\nDefault                                  : Yes\r\nAlternate group                          : 1","torrent":{"xt":"urn:btih:7ffc55aef6c902a012234768bea9949cdaca520f","amp;dn":"World+Trade+Center%282006%29MPEG_4%5BDaScubaDude%5D","amp;tr":["udp%3A%2F%2Ftracker.leechers-paradise.org%3A6969","udp%3A%2F%2Fzer0day.ch%3A1337","udp%3A%2F%2Fopen.demonii.com%3A1337","udp%3A%2F%2Ftracker.coppersurfer.tk%3A6969","udp%3A%2F%2Fexodus.desync.com%3A6969"],"infoHash":"7ffc55aef6c902a012234768bea9949cdaca520f","infoHashBuffer":{"type":"Buffer","data":[127,252,85,174,246,201,2,160,18,35,71,104,190,169,148,156,218,202,82,15]},"announce":[],"urlList":[]}}